<svg width="25" height="24" viewBox="0 0 25 24" fill="none" xmlns="http://www.w3.org/2000/svg">
<g clip-path="url(#clip0_58_1670)">
<path d="M12.7031 23.9062C19.2422 23.9062 24.6562 18.4805 24.6562 11.9531C24.6562 5.41406 19.2305 0 12.6914 0C6.16406 0 0.75 5.41406 0.75 11.9531C0.75 18.4805 6.17578 23.9062 12.7031 23.9062ZM12.7031 21.9141C7.17188 21.9141 2.75391 17.4844 2.75391 11.9531C2.75391 6.42188 7.16016 1.99219 12.6914 1.99219C18.2227 1.99219 22.6641 6.42188 22.6641 11.9531C22.6641 17.4844 18.2344 21.9141 12.7031 21.9141ZM11.4141 17.5195C11.8008 17.5195 12.1289 17.332 12.3633 16.9688L17.7188 8.54297C17.8477 8.30859 18 8.05078 18 7.79297C18 7.26562 17.5312 6.92578 17.0391 6.92578C16.7461 6.92578 16.4531 7.11328 16.2305 7.45312L11.3672 15.2578L9.05859 12.2695C8.77734 11.8945 8.51953 11.8008 8.19141 11.8008C7.6875 11.8008 7.28906 12.2109 7.28906 12.7266C7.28906 12.9844 7.39453 13.2305 7.55859 13.4531L10.418 16.9688C10.7109 17.3555 11.0273 17.5195 11.4141 17.5195Z" fill="#7453BC"/>
</g>
<defs>
<clipPath id="clip0_58_1670">
<rect width="23.9062" height="23.918" fill="white" transform="translate(0.75)"/>
</clipPath>
</defs>
</svg>
