<svg width="25" height="24" viewBox="0 0 25 24" fill="none" xmlns="http://www.w3.org/2000/svg">
<g clip-path="url(#clip0_58_1389)">
<path d="M19.7695 20.0742L20.9531 18.9727L14.2734 12.375L22.2891 7.76953L21.5039 6.41016L13.6172 10.9336V1.53516H12.0469V12.1172C12.0469 12.375 12.1055 12.5859 12.3281 12.7969L19.7695 20.0742ZM12.7031 23.9062C19.2422 23.9062 24.6562 18.4805 24.6562 11.9531C24.6562 5.41406 19.2305 0 12.6914 0C6.16406 0 0.75 5.41406 0.75 11.9531C0.75 18.4805 6.17578 23.9062 12.7031 23.9062ZM12.7031 21.9141C7.17188 21.9141 2.75391 17.4844 2.75391 11.9531C2.75391 6.42188 7.16016 1.99219 12.6914 1.99219C18.2227 1.99219 22.6641 6.42188 22.6641 11.9531C22.6641 17.4844 18.2344 21.9141 12.7031 21.9141Z" fill="#7453BC"/>
</g>
<defs>
<clipPath id="clip0_58_1389">
<rect width="23.9062" height="23.918" fill="white" transform="translate(0.75)"/>
</clipPath>
</defs>
</svg>
