<svg width="25" height="25" viewBox="0 0 25 25" fill="none" xmlns="http://www.w3.org/2000/svg">
<g clip-path="url(#clip0_58_1874)">
<path d="M12.2031 24.4062C18.7422 24.4062 24.1562 18.9805 24.1562 12.4531C24.1562 5.91406 18.7305 0.5 12.1914 0.5C5.66406 0.5 0.25 5.91406 0.25 12.4531C0.25 18.9805 5.67578 24.4062 12.2031 24.4062ZM12.2031 22.4141C6.67188 22.4141 2.25391 17.9844 2.25391 12.4531C2.25391 6.92188 6.66016 2.49219 12.1914 2.49219C17.7227 2.49219 22.1641 6.92188 22.1641 12.4531C22.1641 17.9844 17.7344 22.4141 12.2031 22.4141ZM8.125 10.2031C8.125 10.6484 8.48828 11.0117 8.94531 11.0117H11.4062V13.4727C11.4062 13.9062 11.7695 14.2812 12.2148 14.2812C12.6602 14.2812 13.0352 13.9062 13.0352 13.4727V11.0117H15.4727C15.918 11.0117 16.293 10.6484 16.293 10.2031C16.293 9.75781 15.918 9.38281 15.4727 9.38281H13.0352V6.92188C13.0352 6.47656 12.6602 6.11328 12.2148 6.11328C11.7695 6.11328 11.4062 6.47656 11.4062 6.92188V9.38281H8.94531C8.48828 9.38281 8.125 9.75781 8.125 10.2031ZM8.125 17.1992C8.125 17.6094 8.48828 18.0195 8.95703 18.0195H15.4609C15.918 18.0195 16.293 17.6094 16.293 17.1992C16.293 16.7656 15.918 16.3906 15.4609 16.3906H8.95703C8.48828 16.3906 8.125 16.7656 8.125 17.1992Z" fill="#7453BC"/>
</g>
<defs>
<clipPath id="clip0_58_1874">
<rect width="23.9062" height="23.918" fill="white" transform="translate(0.25 0.5)"/>
</clipPath>
</defs>
</svg>
