<svg width="25" height="25" viewBox="0 0 25 25" fill="none" xmlns="http://www.w3.org/2000/svg">
<g clip-path="url(#clip0_58_638)">
<path d="M12.2031 24.4062C18.7422 24.4062 24.1562 18.9805 24.1562 12.4531C24.1562 5.91406 18.7305 0.5 12.1914 0.5C5.66406 0.5 0.25 5.91406 0.25 12.4531C0.25 18.9805 5.67578 24.4062 12.2031 24.4062ZM12.2031 22.4141C6.67188 22.4141 2.25391 17.9844 2.25391 12.4531C2.25391 6.92188 6.66016 2.49219 12.1914 2.49219C17.7227 2.49219 22.1641 6.92188 22.1641 12.4531C22.1641 17.9844 17.7344 22.4141 12.2031 22.4141ZM12.1914 19.1445C12.5078 19.1445 12.7422 18.9219 12.7422 18.5938V17.7734C14.5586 17.5977 15.9766 16.543 15.9766 14.7734C15.9766 13.1797 14.9453 12.2188 12.9062 11.8555L12.7422 11.8203V8.55078C13.5859 8.70312 14.1719 9.20703 14.4062 9.99219C14.5234 10.3438 14.7461 10.5664 15.1211 10.5664C15.5195 10.5664 15.8125 10.2852 15.8125 9.875C15.8125 9.75781 15.7773 9.64062 15.7539 9.51172C15.4492 8.24609 14.2422 7.37891 12.7422 7.20312V6.39453C12.7422 6.06641 12.5078 5.84375 12.1914 5.84375C11.875 5.84375 11.6406 6.06641 11.6406 6.39453V7.20312C9.85938 7.40234 8.59375 8.51562 8.59375 10.1094C8.59375 11.5977 9.60156 12.4883 11.5586 12.9453L11.6406 12.9688V16.4375C10.5859 16.2852 9.96484 15.6992 9.77734 14.9141C9.63672 14.5156 9.40234 14.3281 9.05078 14.3281C8.65234 14.3281 8.37109 14.6094 8.37109 15.0195C8.37109 15.1484 8.39453 15.2656 8.42969 15.3828C8.75781 16.7305 10.0703 17.5977 11.6406 17.75V18.5938C11.6406 18.9219 11.875 19.1445 12.1914 19.1445ZM11.6406 11.5273L11.5586 11.5039C10.5039 11.1992 10.0352 10.7305 10.0352 10.0391C10.0352 9.32422 10.6445 8.72656 11.6406 8.55078V11.5273ZM12.7422 13.25L13 13.3086C14.1367 13.625 14.5234 14.1055 14.5234 14.8555C14.5234 15.6758 13.9375 16.2969 12.7422 16.4375V13.25Z" fill="#7453BC"/>
</g>
<defs>
<clipPath id="clip0_58_638">
<rect width="23.9062" height="23.918" fill="white" transform="translate(0.25 0.5)"/>
</clipPath>
</defs>
</svg>
